# xmcd
#
# Track frame offsets:
#	150
#	20280
#	39280
#	55093
#	74100
#	92328
#	116680
#	136985
#	154455
#	180195
#	203655
#	220193
#	246080
#
# Disc length: 3566 seconds
#
# Revision: 1
# Processed by: cddbd v1.5.1PL0 Copyright (c) Steve Scherf et al.
# Submitted via: CDex 1.50Beta5
#
DISCID=ac0dec0d
DTITLE=フォーシスターズwith栗コーダーカルテット - <NEW BEST ONE>沖縄名曲バラードコレクション
DYEAR=2002
DGENRE=ミュージック
TTITLE0=フォーシスターズwith栗コーダーカルテット/島々清しゃ
TTITLE1=玉城一美/御縁花
TTITLE2=伊波智恵子with栗コーダーカルテット/歌や歌
TTITLE3=宮けいこ/芭蕉布
TTITLE4=ホップトーンズ/チョッチョイ子守唄
TTITLE5=大工哲弘&ツンダラーズ/かどかれーゆんた
TTITLE6=山里ユキ/懐かしき故郷
TTITLE7=大城美佐子/浜育ち
TTITLE8=嘉手苅林昌/下千鳥
TTITLE9=大工哲弘&ツンダラーズ/あがろーざ
TTITLE10=伊波智恵子with栗コーダーカルテット/なれし古里
TTITLE11=饒辺愛子/西武門節
TTITLE12=大島保克/とぅばらーま
EXTD=
EXTT0=
EXTT1=
EXTT2=
EXTT3=
EXTT4=
EXTT5=
EXTT6=
EXTT7=
EXTT8=
EXTT9=
EXTT10=
EXTT11=
EXTT12=
PLAYORDER=
